<?xml version="1.0" encoding="UTF-8"?>
<svg version="1.1" xmlns="http://www.w3.org/2000/svg" width="540" height="165">
<path d="M0 0 C178.2 0 356.4 0 540 0 C540 54.45 540 108.9 540 165 C361.8 165 183.6 165 0 165 C0 110.55 0 56.1 0 0 Z " fill="#AC6AFE" transform="translate(0,0)"/>
<path d="M0 0 C31.40217391 0 31.40217391 0 40.37109375 8.15625 C49.37960114 17.53409014 50.38999606 27.5273879 50.27734375 40.20703125 C49.58188912 49.71810796 45.47059391 58.25559112 38.234375 64.53125 C26.84234765 73.05050524 14.01342092 71 0 71 C0 47.57 0 24.14 0 0 Z " fill="#AC6AFE" transform="translate(38,53)"/>
<path d="M0 0 C28.56347439 0 28.56347439 0 34.9453125 5.75390625 C39.25658524 10.55646356 40.36639617 13.89538533 40.2734375 20.328125 C39.84662244 24.49871785 38.60780991 27.70991424 36 31 C32.87537034 33.51390659 30.09677858 35 26 35 C26 35.66 26 36.32 26 37 C26.99 37.061875 27.98 37.12375 29 37.1875 C34.95682753 38.05746264 39.27321324 41.31638291 43.5 45.4375 C45.9184801 51.18139024 45.72117216 56.86639438 45 63 C43.3125 66.625 43.3125 66.625 41 69 C40.319375 69.70125 39.63875 70.4025 38.9375 71.125 C25.77129437 79.52896104 16.32780655 77 0 77 C0 51.59 0 26.18 0 0 Z " fill="#FCF4FE" transform="translate(458,50)"/>
<path d="M0 0 C2.31 0 4.62 0 7 0 C7 11.55 7 23.1 7 35 C22.18 35 37.36 35 53 35 C53 23.45 53 11.9 53 0 C55.64 0 58.28 0 61 0 C61 25.41 61 50.82 61 77 C58.36 77 55.72 77 53 77 C53 64.13 53 51.26 53 38 C37.82 38 22.64 38 7 38 C7 50.54 7 63.08 7 76 C4.69 76 2.38 76 0 76 C0 50.92 0 25.84 0 0 Z " fill="#FAF1FE" transform="translate(282,50)"/>
<path d="M0 0 C42.80066695 0 42.80066695 0 55.8125 12.3125 C64.41274109 21.31798805 65.48538262 30.46161361 65.265625 42.44140625 C64.85317444 52.293718 61.16977605 58.8254426 54.35546875 65.83984375 C38.99460351 79.92700541 20.51272593 76 0 76 C0 50.92 0 25.84 0 0 Z M7 3 C7 26.43 7 49.86 7 74 C28.58979286 75.06168932 28.58979286 75.06168932 47.046875 66.2421875 C51.5946611 61.44174661 53.94313258 56.22589439 56 50 C56.33 49.01 56.66 48.02 57 47 C57.62958453 34.78898847 57.23155372 23.18955557 49.5703125 13.12109375 C44.4961563 7.50067671 40.51561886 6.41619039 33 3 C24.42 3 15.84 3 7 3 Z " fill="#FBF3FE" transform="translate(31,50)"/>
<path d="M0 0 C0.86343018 0.00652588 1.72686035 0.01305176 2.61645508 0.01977539 C21.34443962 0.40693962 21.34443962 0.40693962 25.3125 4.375 C25.35330783 6.37458364 25.35504356 8.37545254 25.3125 10.375 C21.30259223 8.82277764 17.40201146 7.07122277 13.49609375 5.27734375 C5.63962439 2.03075266 -3.51949034 2.31382286 -11.5 5 C-20.90995927 8.91739207 -26.5733362 14.28023167 -30.65625 23.58203125 C-34.84909115 35.28704613 -33.59829471 48.11535854 -28.6875 59.375 C-24.47785836 67.15452011 -17.1233198 72.75370006 -8.6875 75.375 C-5.78765793 75.7058421 -2.91687845 75.75514441 0 75.75 C1.19677368 75.75084595 1.19677368 75.75084595 2.41772461 75.75170898 C8.55735974 75.63753835 15.71907727 74.96842273 20.3125 70.375 C20.47108842 68.23113343 20.56379298 66.08233162 20.62890625 63.93359375 C20.69174805 61.97583008 20.69174805 61.97583008 20.75585938 59.97851562 C20.79567608 58.5898467 20.83538825 57.20117478 20.875 55.8125 C20.91817989 54.41990817 20.961794 53.02732972 21.00585938 51.63476562 C21.11235806 48.21497451 21.21297056 44.79500104 21.3125 41.375 C14.7125 41.375 8.1125 41.375 1.3125 41.375 C1.3125 40.715 1.3125 40.055 1.3125 39.375 C10.5525 39.375 19.7925 39.375 29.3125 39.375 C29.52014416 43.54326424 29.69868402 47.69345769 29.80688477 51.86279297 C29.8519723 53.27747491 29.91326961 54.69174131 29.99145508 56.10498047 C30.62414342 67.84072898 30.62414342 67.84072898 27.40087891 71.61108398 C25.08472638 73.17341004 22.89344172 74.31709423 20.3125 75.375 C19.66385986 75.6939624 19.01521973 76.0129248 18.34692383 76.34155273 C8.78862945 80.8728826 -4.68793177 81.16345034 -14.6875 77.75 C-25.66160175 72.98514796 -34.34182242 65.7940306 -39.6875 54.9375 C-43.07476638 45.98133804 -43.740042 34.07839571 -39.9375 25.125 C-39.2304056 23.85023826 -38.48348265 22.59623365 -37.6875 21.375 C-37.0275 20.3025 -36.3675 19.23 -35.6875 18.125 C-32.30758704 13.47761967 -29.40468322 9.84992965 -24.5 6.75 C-23.17935547 5.89535156 -23.17935547 5.89535156 -21.83203125 5.0234375 C-14.62220584 1.24387685 -8.10792123 -0.13416613 0 0 Z " fill="#FAF2FE" transform="translate(191.6875,48.625)"/>
<path d="M0 0 C2.31 0 4.62 0 7 0 C7.00364563 0.63956131 7.00729126 1.27912262 7.01104736 1.93806458 C7.05309654 8.63900132 7.12259745 15.33926737 7.20751953 22.03979492 C7.23561732 24.53516915 7.25688707 27.03063052 7.27099609 29.52612305 C7.29258039 33.12854269 7.33931212 36.72992672 7.390625 40.33203125 C7.39185364 41.43456741 7.39308228 42.53710358 7.39434814 43.67304993 C7.54341393 51.6883049 8.47557543 60.01798574 13.98394775 66.24153137 C20.79533668 72.59064518 27.08998908 73.63689937 36.25390625 73.3828125 C42.82380881 72.7114356 46.95487845 70.14999958 51.4375 65.4375 C54.42176053 60.78205358 55.24983536 57.94227088 55.23046875 52.3046875 C55.23037308 51.64747208 55.2302774 50.99025665 55.23017883 50.31312561 C55.22645255 48.16689946 55.20750195 46.02113138 55.1875 43.875 C55.18063566 42.39526527 55.17412816 40.91552885 55.16796875 39.43579102 C55.09018998 26.27911042 54.64748853 13.14091758 54 0 C56.64 0 59.28 0 62 0 C62.10400901 11.76553717 61.88971487 23.49564749 61.36523438 35.25024414 C61.28788747 37.05396743 61.21832834 38.8580402 61.15625 40.66235352 C60.35363407 63.9026831 60.35363407 63.9026831 52.9375 71.375 C43.97940537 78.04148903 33.89102661 79.17196917 23 78 C15.27759106 76.09988096 9.75388626 72.46202844 4.8125 66.25 C0.22472597 58.02364656 -0.42019934 50.632672 -0.29296875 41.30859375 C-0.28872391 40.12274185 -0.28447906 38.93688995 -0.28010559 37.71510315 C-0.26341433 33.95566374 -0.22577888 30.19677533 -0.1875 26.4375 C-0.17244086 23.87696091 -0.15875462 21.31641335 -0.14648438 18.75585938 C-0.11354207 12.50372066 -0.0634382 6.25189971 0 0 Z " fill="#FBF4FE" transform="translate(370,50)"/>
<path d="M0 0 C20.78723404 0 20.78723404 0 25.76953125 4.65234375 C30.29559771 9.66599583 31.37137629 13.6544741 31.2734375 20.36328125 C30.84272715 24.51655963 29.59605544 27.72276383 27 31 C18.79776636 37.56559305 10.54064073 36 0 36 C0 24.12 0 12.24 0 0 Z " fill="#AE6EFE" transform="translate(465,88)"/>
<path d="M0 0 C14 0 14 0 20 3 C23.91659963 6.91659963 24.27858619 10.22961121 24.375 15.5625 C24.32453978 19.84657252 23.94619333 23.15459042 22 27 C14.26148315 33.96466517 13.06420468 32 0 32 C0 21.44 0 10.88 0 0 Z " fill="#AC6AFF" transform="translate(466,53)"/>
<path d="M0 0 C2.64 0 5.28 0 8 0 C8 25.41 8 50.82 8 77 C5.36 77 2.72 77 0 77 C0 51.59 0 26.18 0 0 Z " fill="#F8EEFE" transform="translate(119,50)"/>
<path d="M0 0 C2.31 0 4.62 0 7 0 C7 25.08 7 50.16 7 76 C4.69 76 2.38 76 0 76 C0 50.92 0 25.84 0 0 Z " fill="#FEF9FE" transform="translate(246,50)"/>
<path d="M0 0 C28.56347439 0 28.56347439 0 34.9453125 5.75390625 C39.25658524 10.55646356 40.36639617 13.89538533 40.2734375 20.328125 C39.84662244 24.49871785 38.60780991 27.70991424 36 31 C32.87537034 33.51390659 30.09677858 35 26 35 C25.67 35.66 25.34 36.32 25 37 C25 35.68 25 34.36 25 33 C26.65002828 31.64613064 28.3174387 30.31321858 30 29 C32.05882027 23.4512283 32.17406015 15.45199208 30.28125 9.88671875 C28.14014153 6.40741749 25.77395359 5.20032691 22 4 C19.57007865 3.71664284 17.1300498 3.51196541 14.6875 3.375 C12.80611328 3.26285156 12.80611328 3.26285156 10.88671875 3.1484375 C9.93410156 3.09945312 8.98148437 3.05046875 8 3 C8 2.67 8 2.34 8 2 C5.69 1.67 3.38 1.34 1 1 C1 25.75 1 50.5 1 76 C8.92 76 16.84 76 25 76 C25 76.33 25 76.66 25 77 C16.75 77 8.5 77 0 77 C0 51.59 0 26.18 0 0 Z " fill="#F5E9FE" transform="translate(458,50)"/>
<path d="M0 0 C-1 3 -1 3 -3.375 4.1875 C-6 5 -6 5 -9 5 C-9.33 4.01 -9.66 3.02 -10 2 C-8.71211992 1.46987262 -7.41953322 0.9511671 -6.125 0.4375 C-5.40570313 0.14746094 -4.68640625 -0.14257812 -3.9453125 -0.44140625 C-2 -1 -2 -1 0 0 Z " fill="#F4E7FE" transform="translate(211,122)"/>
</svg>
